<svg xmlns="http://www.w3.org/2000/svg" width="191.245" height="54.258" viewBox="0 0 191.245 54.258">
                <g id="Group_48" data-name="Group 48" transform="translate(-3.841 -3.021)">
                    <path id="Path_3567" data-name="Path 3567"
                        d="M18.539,20.782c8.893,0,14.17,7.369,14.17,15.4v.429a.543.543,0,0,1-.605.567H5.949C6.428,44.52,11.641,49.4,18.714,49.4c4.995,0,8.923-2.4,10.516-5.964a.736.736,0,0,1,.694-.427h1.042c.437,0,.663.231.522.58-1.857,4.661-6.7,7.765-12.792,7.765-8.776,0-14.855-6.431-14.855-15.285,0-8.619,5.884-15.285,14.7-15.285ZM5.932,35.226H30.645c-.509-7.729-5.656-12.489-12.106-12.489C11.381,22.737,6.294,27.891,5.932,35.226Z"
                        transform="translate(0 -5.487)" fill="#fff" />
                    <path id="Path_3568" data-name="Path 3568"
                        d="M81.509,42.8c-1.929,5.133-7.167,8.552-13.447,8.552A15,15,0,0,1,52.719,36.068,15,15,0,0,1,68.062,20.784c6.28,0,11.5,3.419,13.447,8.552.167.409-.054.673-.472.673h-.945a.705.705,0,0,1-.693-.448c-1.768-4.117-6.087-6.823-11.337-6.823a13.054,13.054,0,0,0-13.271,13.33A13.054,13.054,0,0,0,68.062,49.4c5.233,0,9.55-2.727,11.335-6.825a.706.706,0,0,1,.694-.446h.947C81.455,42.127,81.677,42.39,81.509,42.8Z"
                        transform="translate(-15.101 -5.488)" fill="#fff" />
                    <path id="Path_3569" data-name="Path 3569"
                        d="M101.566,44.652V3.607a.535.535,0,0,1,.586-.586h.9a.535.535,0,0,1,.587.586V44.652a.536.536,0,0,1-.587.587h-.9A.535.535,0,0,1,101.566,44.652Z"
                        transform="translate(-30.193)" fill="#fff" />
                    <path id="Path_3570" data-name="Path 3570"
                        d="M111.667,10V5.306a.535.535,0,0,1,.587-.587h.9a.536.536,0,0,1,.587.587V10a.536.536,0,0,1-.587.587h-.9A.535.535,0,0,1,111.667,10Zm0,35.182V17.033a.535.535,0,0,1,.587-.587h.9a.536.536,0,0,1,.587.587V45.178a.535.535,0,0,1-.587.586h-.9A.535.535,0,0,1,111.667,45.178Z"
                        transform="translate(-33.314 -0.525)" fill="#fff" />
                    <path id="Path_3571" data-name="Path 3571"
                        d="M137.21,21.237a15.284,15.284,0,0,1,0,30.568,14.4,14.4,0,0,1-13.37-8.511V62.32a.536.536,0,0,1-.587.587h-.9a.535.535,0,0,1-.586-.587V22.448a.535.535,0,0,1,.586-.587h.9a.536.536,0,0,1,.587.587v7.3a14.4,14.4,0,0,1,13.37-8.511ZM150.383,36.52a13.271,13.271,0,1,0-13.271,13.331A13.149,13.149,0,0,0,150.383,36.52Z"
                        transform="translate(-36.435 -5.627)" fill="#fff" />
                    <path id="Path_3572" data-name="Path 3572"
                        d="M181.713,18.533v.782a.535.535,0,0,1-.587.586h-6.137V46.678a.535.535,0,0,1-.587.586h-.9a.535.535,0,0,1-.586-.586V19.9H166.76a.535.535,0,0,1-.586-.586v-.782a.535.535,0,0,1,.586-.587h6.157V9.151a.535.535,0,0,1,.586-.587h.9a.536.536,0,0,1,.587.587v8.795h6.137A.536.536,0,0,1,181.713,18.533Z"
                        transform="translate(-50.154 -1.713)" fill="#fff" />
                    <path id="Path_3573" data-name="Path 3573"
                        d="M198.959,38.184a11.609,11.609,0,1,1,11.609,11.565A11.469,11.469,0,0,1,198.959,38.184Zm21.651,0A10.042,10.042,0,1,0,210.568,48.27,9.95,9.95,0,0,0,220.61,38.184Z"
                        transform="translate(-60.283 -7.291)" fill="#fff" />
                    <path id="Path_3574" data-name="Path 3574"
                        d="M260.942,21.236c5.453,0,9.773,3.636,9.773,10.379V50.593a.535.535,0,0,1-.587.586h-.9a.535.535,0,0,1-.587-.586V31.614c0-5.376-3.264-8.424-7.936-8.424-5.16,0-10.008,3.713-10.008,11.453V50.593a.535.535,0,0,1-.586.586h-.9a.535.535,0,0,1-.586-.586V22.448a.535.535,0,0,1,.586-.587h.9a.535.535,0,0,1,.586.587v5.265a10.706,10.706,0,0,1,10.242-6.478Z"
                        transform="translate(-75.629 -5.627)" fill="#fff" />
                    <g id="Group_47" data-name="Group 47" transform="translate(131.251 12.048)">
                        <path id="Path_3575" data-name="Path 3575"
                            d="M234,52.3l.606.786a18.985,18.985,0,0,0,3.97-20.046l-.811.625A18.007,18.007,0,0,1,234,52.3Z"
                            transform="translate(-202.359 -21.323)" fill="#fff" />
                        <path id="Path_3576" data-name="Path 3576"
                            d="M210.9,52.059a18.188,18.188,0,0,1-6.2.271,17.7,17.7,0,1,1,4.542-35.113,18.035,18.035,0,0,1,8.182,3.183l.8-.618a18.989,18.989,0,0,0-8.858-3.534A18.68,18.68,0,1,0,204.577,53.3a19.165,19.165,0,0,0,6.989-.383Z"
                            transform="translate(-188.214 -16.084)" fill="#fff" />
                    </g>
                    <circle id="Ellipse_140" data-name="Ellipse 140" cx="3.695" cy="3.695" r="3.695"
                        transform="translate(146.59 8.562)" fill="#fff" />
                </g>
            </svg>